<svg width="237" height="258" viewBox="0 0 237 258" fill="none" xmlns="http://www.w3.org/2000/svg">
<path d="M218 122C222.97 122 227 117.971 227 113C227 108.029 222.97 104 218 104C213.03 104 209 108.029 209 113C209 117.971 213.03 122 218 122Z" fill="url(#paint0_linear_28401_3)"/>
<path d="M179.998 106C187.179 106 193 100.18 193 93C193 85.8203 187.179 80 179.998 80C172.821 80 167 85.8203 167 93C167 100.18 172.821 106 179.998 106Z" fill="url(#paint1_linear_28401_3)"/>
<path d="M104.5 67C111.401 67 117 61.6272 117 54.9998C117 48.3725 111.401 43 104.5 43C97.5959 43 92 48.3725 92 54.9998C92 61.6272 97.5959 67 104.5 67Z" fill="url(#paint2_linear_28401_3)"/>
<path d="M117.999 34C122.97 34 127 29.7468 127 24.5002C127 19.2535 122.97 15 117.999 15C113.03 15 109 19.2535 109 24.5002C109 29.7468 113.03 34 117.999 34Z" fill="url(#paint3_linear_28401_3)"/>
<path d="M163 52C167.972 52 172 48.1945 172 43.5002C172 38.8056 167.972 35 163 35C158.028 35 154 38.8056 154 43.5002C154 48.1945 158.028 52 163 52Z" fill="url(#paint4_linear_28401_3)"/>
<path d="M206.998 82C209.761 82 212 79.7616 212 77C212 74.2387 209.761 72 206.998 72C204.236 72 202 74.2387 202 77C202 79.7616 204.236 82 206.998 82Z" fill="url(#paint5_linear_28401_3)"/>
<path d="M232 87C234.76 87 237 84.7613 237 81.9999C237 79.2384 234.76 77 232 77C229.24 77 227 79.2384 227 81.9999C227 84.7613 229.24 87 232 87Z" fill="url(#paint6_linear_28401_3)"/>
<path d="M228.498 29C231.536 29 234 26.5377 234 23.5002C234 20.4626 231.536 18 228.498 18C225.461 18 223 20.4626 223 23.5002C223 26.5377 225.461 29 228.498 29Z" fill="url(#paint7_linear_28401_3)"/>
<path d="M183.498 24C186.537 24 189 21.5374 189 18.4999C189 15.4623 186.537 13 183.498 13C180.463 13 178 15.4623 178 18.4999C178 21.5374 180.463 24 183.498 24Z" fill="url(#paint8_linear_28401_3)"/>
<path d="M155 11C157.76 11 160 8.53753 160 5.5C160 2.46247 157.76 0 155 0C152.24 0 150 2.46247 150 5.5C150 8.53753 152.24 11 155 11Z" fill="url(#paint9_linear_28401_3)"/>
<path d="M139.502 99C152.478 99 163 88.4787 163 75.5C163 62.5213 152.478 52 139.502 52C126.522 52 116 62.5213 116 75.5C116 88.4787 126.522 99 139.502 99Z" fill="url(#paint10_linear_28401_3)"/>
<path d="M68.0015 81C76.2842 81 83 74.2841 83 66C83 57.7156 76.2842 51 68.0015 51C59.7158 51 53 57.7156 53 66C53 74.2841 59.7158 81 68.0015 81Z" fill="url(#paint11_linear_28401_3)"/>
<path d="M187.5 145C196.611 145 204 137.837 204 129C204 120.164 196.611 113 187.5 113C178.389 113 171 120.164 171 129C171 137.837 178.389 145 187.5 145Z" fill="url(#paint12_linear_28401_3)"/>
<path d="M54.66 73.395C54.66 73.395 8.04928 95.4435 0.807972 148.981C-6.43023 202.518 35.7637 256.065 95.2864 257.955C154.806 259.845 202.99 201.888 192.599 143.786C192.599 143.786 202.36 140.714 203.782 132.214C205.197 123.714 199.607 114.972 190.556 113.945C181.502 112.918 176.145 122.609 161.898 114.256C161.898 114.256 149.775 105.67 157.888 90.2397C157.888 90.2397 167.215 78.823 161.787 67.0092C156.352 55.1951 140.879 48.464 127.771 56.4982C114.664 64.5324 123.286 76.8121 97.7788 75.9839C97.7788 75.9839 87.744 74.4477 83.8424 62.9878C79.944 51.5275 69.3226 50.7856 62.9348 52.9862C56.5502 55.2038 49.6224 62.9964 54.66 73.395Z" fill="url(#paint13_linear_28401_3)"/>
<path d="M94.5 256C146.689 256 189 213.689 189 161.5C189 109.309 146.689 67 94.5 67C42.308 67 0 109.309 0 161.5C0 213.689 42.308 256 94.5 256Z" fill="url(#paint14_linear_28401_3)"/>
<path d="M97.4984 230C135.884 230 167 198.884 167 160.499C167 122.116 135.884 91 97.4984 91C59.1163 91 28 122.116 28 160.499C28 198.884 59.1163 230 97.4984 230Z" fill="white"/>
<path d="M146.739 226C143.668 226 142.131 224.476 142.131 221.428V181.752H54.8782V221.428C54.8782 224.476 53.3411 226 50.2667 226H48.6084C45.5372 226 44 224.476 44 221.428V102.57C44 99.5233 45.5372 98 48.6084 98H50.2667C53.3411 98 54.8782 99.5233 54.8782 102.57V171.687H142.122V102.57C142.122 99.5233 143.659 98 146.733 98H148.388C151.463 98 153 99.5233 153 102.57V221.428C153 224.476 151.463 226 148.388 226H146.739Z" fill="url(#paint15_linear_28401_3)"/>
<defs>
<linearGradient id="paint0_linear_28401_3" x1="306.967" y1="-25.3854" x2="98.6998" y2="298.602" gradientUnits="userSpaceOnUse">
<stop stop-color="#3EBEB1"/>
<stop offset="0.209" stop-color="#3FBBB1"/>
<stop offset="0.3803" stop-color="#3CB4B2"/>
<stop offset="0.5383" stop-color="#35ABB5"/>
<stop offset="0.6882" stop-color="#2C9DB7"/>
<stop offset="0.8325" stop-color="#228CB9"/>
<stop offset="0.9707" stop-color="#1877B9"/>
<stop offset="1" stop-color="#1372BA"/>
</linearGradient>
<linearGradient id="paint1_linear_28401_3" x1="274.698" y1="-54.2952" x2="69.1896" y2="265.413" gradientUnits="userSpaceOnUse">
<stop stop-color="#3EBEB1"/>
<stop offset="0.209" stop-color="#3FBBB1"/>
<stop offset="0.3803" stop-color="#3CB4B2"/>
<stop offset="0.5383" stop-color="#35ABB5"/>
<stop offset="0.6882" stop-color="#2C9DB7"/>
<stop offset="0.8325" stop-color="#228CB9"/>
<stop offset="0.9707" stop-color="#1877B9"/>
<stop offset="1" stop-color="#1372BA"/>
</linearGradient>
<linearGradient id="paint2_linear_28401_3" x1="200.952" y1="-89.0356" x2="4.99535" y2="228.482" gradientUnits="userSpaceOnUse">
<stop stop-color="#3EBEB1"/>
<stop offset="0.209" stop-color="#3FBBB1"/>
<stop offset="0.3803" stop-color="#3CB4B2"/>
<stop offset="0.5383" stop-color="#35ABB5"/>
<stop offset="0.6882" stop-color="#2C9DB7"/>
<stop offset="0.8325" stop-color="#228CB9"/>
<stop offset="0.9707" stop-color="#1877B9"/>
<stop offset="1" stop-color="#1372BA"/>
</linearGradient>
<linearGradient id="paint3_linear_28401_3" x1="193.165" y1="-98.9373" x2="-23.7534" y2="220.71" gradientUnits="userSpaceOnUse">
<stop stop-color="#3EBEB1"/>
<stop offset="0.209" stop-color="#3FBBB1"/>
<stop offset="0.3803" stop-color="#3CB4B2"/>
<stop offset="0.5383" stop-color="#35ABB5"/>
<stop offset="0.6882" stop-color="#2C9DB7"/>
<stop offset="0.8325" stop-color="#228CB9"/>
<stop offset="0.9707" stop-color="#1877B9"/>
<stop offset="1" stop-color="#1372BA"/>
</linearGradient>
<linearGradient id="paint4_linear_28401_3" x1="237.165" y1="-65.4527" x2="42.6767" y2="254.908" gradientUnits="userSpaceOnUse">
<stop stop-color="#3EBEB1"/>
<stop offset="0.209" stop-color="#3FBBB1"/>
<stop offset="0.3803" stop-color="#3CB4B2"/>
<stop offset="0.5383" stop-color="#35ABB5"/>
<stop offset="0.6882" stop-color="#2C9DB7"/>
<stop offset="0.8325" stop-color="#228CB9"/>
<stop offset="0.9707" stop-color="#1877B9"/>
<stop offset="1" stop-color="#1372BA"/>
</linearGradient>
<linearGradient id="paint5_linear_28401_3" x1="280.506" y1="-37.3422" x2="78.0179" y2="277.638" gradientUnits="userSpaceOnUse">
<stop stop-color="#3EBEB1"/>
<stop offset="0.209" stop-color="#3FBBB1"/>
<stop offset="0.3803" stop-color="#3CB4B2"/>
<stop offset="0.5383" stop-color="#35ABB5"/>
<stop offset="0.6882" stop-color="#2C9DB7"/>
<stop offset="0.8325" stop-color="#228CB9"/>
<stop offset="0.9707" stop-color="#1877B9"/>
<stop offset="1" stop-color="#1372BA"/>
</linearGradient>
<linearGradient id="paint6_linear_28401_3" x1="298.44" y1="-21.3816" x2="101.985" y2="284.132" gradientUnits="userSpaceOnUse">
<stop stop-color="#3EBEB1"/>
<stop offset="0.209" stop-color="#3FBBB1"/>
<stop offset="0.3803" stop-color="#3CB4B2"/>
<stop offset="0.5383" stop-color="#35ABB5"/>
<stop offset="0.6882" stop-color="#2C9DB7"/>
<stop offset="0.8325" stop-color="#228CB9"/>
<stop offset="0.9707" stop-color="#1877B9"/>
<stop offset="1" stop-color="#1372BA"/>
</linearGradient>
<linearGradient id="paint7_linear_28401_3" x1="271.183" y1="-42.8964" x2="70.4453" y2="269.352" gradientUnits="userSpaceOnUse">
<stop stop-color="#3EBEB1"/>
<stop offset="0.209" stop-color="#3FBBB1"/>
<stop offset="0.3803" stop-color="#3CB4B2"/>
<stop offset="0.5383" stop-color="#35ABB5"/>
<stop offset="0.6882" stop-color="#2C9DB7"/>
<stop offset="0.8325" stop-color="#228CB9"/>
<stop offset="0.9707" stop-color="#1877B9"/>
<stop offset="1" stop-color="#1372BA"/>
</linearGradient>
<linearGradient id="paint8_linear_28401_3" x1="237.657" y1="-65.7334" x2="35.0556" y2="249.468" gradientUnits="userSpaceOnUse">
<stop stop-color="#3EBEB1"/>
<stop offset="0.209" stop-color="#3FBBB1"/>
<stop offset="0.3803" stop-color="#3CB4B2"/>
<stop offset="0.5383" stop-color="#35ABB5"/>
<stop offset="0.6882" stop-color="#2C9DB7"/>
<stop offset="0.8325" stop-color="#228CB9"/>
<stop offset="0.9707" stop-color="#1877B9"/>
<stop offset="1" stop-color="#1372BA"/>
</linearGradient>
<linearGradient id="paint9_linear_28401_3" x1="208.664" y1="-86.3399" x2="-11.9832" y2="225.611" gradientUnits="userSpaceOnUse">
<stop stop-color="#3EBEB1"/>
<stop offset="0.209" stop-color="#3FBBB1"/>
<stop offset="0.3803" stop-color="#3CB4B2"/>
<stop offset="0.5383" stop-color="#35ABB5"/>
<stop offset="0.6882" stop-color="#2C9DB7"/>
<stop offset="0.8325" stop-color="#228CB9"/>
<stop offset="0.9707" stop-color="#1877B9"/>
<stop offset="1" stop-color="#1372BA"/>
</linearGradient>
<linearGradient id="paint10_linear_28401_3" x1="391.666" y1="-316.761" x2="-517.624" y2="1097.67" gradientUnits="userSpaceOnUse">
<stop stop-color="#3EBEB1"/>
<stop offset="0.209" stop-color="#3FBBB1"/>
<stop offset="0.3803" stop-color="#3CB4B2"/>
<stop offset="0.5383" stop-color="#35ABB5"/>
<stop offset="0.6882" stop-color="#2C9DB7"/>
<stop offset="0.8325" stop-color="#228CB9"/>
<stop offset="0.9707" stop-color="#1877B9"/>
<stop offset="1" stop-color="#1372BA"/>
</linearGradient>
<linearGradient id="paint11_linear_28401_3" x1="228.949" y1="-184.368" x2="-351.403" y2="718.42" gradientUnits="userSpaceOnUse">
<stop stop-color="#3EBEB1"/>
<stop offset="0.209" stop-color="#3FBBB1"/>
<stop offset="0.3803" stop-color="#3CB4B2"/>
<stop offset="0.5383" stop-color="#35ABB5"/>
<stop offset="0.6882" stop-color="#2C9DB7"/>
<stop offset="0.8325" stop-color="#228CB9"/>
<stop offset="0.9707" stop-color="#1877B9"/>
<stop offset="1" stop-color="#1372BA"/>
</linearGradient>
<linearGradient id="paint12_linear_28401_3" x1="364.541" y1="-138.068" x2="-246.446" y2="842.002" gradientUnits="userSpaceOnUse">
<stop stop-color="#3EBEB1"/>
<stop offset="0.209" stop-color="#3FBBB1"/>
<stop offset="0.3803" stop-color="#3CB4B2"/>
<stop offset="0.5383" stop-color="#35ABB5"/>
<stop offset="0.6882" stop-color="#2C9DB7"/>
<stop offset="0.8325" stop-color="#228CB9"/>
<stop offset="0.9707" stop-color="#1877B9"/>
<stop offset="1" stop-color="#1372BA"/>
</linearGradient>
<linearGradient id="paint13_linear_28401_3" x1="229.665" y1="-26.2747" x2="42.5748" y2="237.327" gradientUnits="userSpaceOnUse">
<stop stop-color="#3EBEB1"/>
<stop offset="0.209" stop-color="#3FBBB1"/>
<stop offset="0.3803" stop-color="#3CB4B2"/>
<stop offset="0.5383" stop-color="#35ABB5"/>
<stop offset="0.6882" stop-color="#2C9DB7"/>
<stop offset="0.8325" stop-color="#228CB9"/>
<stop offset="0.9707" stop-color="#1877B9"/>
<stop offset="1" stop-color="#1372BA"/>
</linearGradient>
<linearGradient id="paint14_linear_28401_3" x1="224.298" y1="-4.35483" x2="30.1889" y2="243.676" gradientUnits="userSpaceOnUse">
<stop stop-color="#3EBEB1"/>
<stop offset="0.209" stop-color="#3FBBB1"/>
<stop offset="0.3803" stop-color="#3CB4B2"/>
<stop offset="0.5383" stop-color="#35ABB5"/>
<stop offset="0.6882" stop-color="#2C9DB7"/>
<stop offset="0.8325" stop-color="#228CB9"/>
<stop offset="0.9707" stop-color="#1877B9"/>
<stop offset="1" stop-color="#1372BA"/>
</linearGradient>
<linearGradient id="paint15_linear_28401_3" x1="212.276" y1="17.8794" x2="43.9606" y2="234.827" gradientUnits="userSpaceOnUse">
<stop stop-color="#3EBEB1"/>
<stop offset="0.209" stop-color="#3FBBB1"/>
<stop offset="0.3803" stop-color="#3CB4B2"/>
<stop offset="0.5383" stop-color="#35ABB5"/>
<stop offset="0.6882" stop-color="#2C9DB7"/>
<stop offset="0.8325" stop-color="#228CB9"/>
<stop offset="0.9707" stop-color="#1877B9"/>
<stop offset="1" stop-color="#1372BA"/>
</linearGradient>
</defs>
</svg>
